<svg width="16" height="16" viewBox="0 0 16 16" fill="none" xmlns="http://www.w3.org/2000/svg">
<path d="M15.9152 11.2442C15.8958 11.2025 15.8777 11.1678 15.8609 11.1401C15.5833 10.6401 15.0529 10.0265 14.2698 9.29891L14.2532 9.28224L14.2451 9.27407L14.2366 9.2657H14.2283C13.8728 8.92692 13.6477 8.69912 13.5535 8.5825C13.3811 8.36033 13.3425 8.13545 13.4367 7.90761C13.5033 7.73546 13.7534 7.3719 14.1865 6.81645C14.4142 6.52206 14.5946 6.28613 14.7279 6.10838C15.6888 4.83097 16.1053 4.01468 15.9775 3.65921L15.9279 3.57614C15.8945 3.52613 15.8084 3.48038 15.6697 3.43865C15.5308 3.39701 15.3531 3.39013 15.1364 3.41788L12.7374 3.43445C12.6985 3.42068 12.6429 3.42196 12.5707 3.43865C12.4984 3.45534 12.4623 3.46371 12.4623 3.46371L12.4206 3.48458L12.3875 3.50964C12.3596 3.52621 12.3291 3.55537 12.2958 3.59703C12.2626 3.63855 12.2348 3.68728 12.2126 3.74281C11.9514 4.4148 11.6545 5.03959 11.3212 5.61714C11.1157 5.96153 10.9269 6.25999 10.7546 6.5127C10.5825 6.76533 10.4381 6.95144 10.3215 7.07076C10.2048 7.19018 10.0995 7.28586 10.0048 7.35813C9.91047 7.43043 9.83838 7.46098 9.78836 7.4498C9.73835 7.43864 9.69131 7.42755 9.64667 7.41646C9.56891 7.36645 9.50651 7.29843 9.45937 7.21236C9.41195 7.12629 9.38017 7.01795 9.36347 6.88743C9.34686 6.75683 9.33707 6.64449 9.33428 6.55005C9.33169 6.45572 9.33284 6.32229 9.33851 6.15013C9.34427 5.9779 9.34686 5.86136 9.34686 5.80026C9.34686 5.58919 9.35099 5.36011 9.35924 5.11298C9.36769 4.86583 9.37451 4.67002 9.38017 4.52576C9.38583 4.38136 9.38843 4.2286 9.38843 4.06753C9.38843 3.90647 9.37863 3.78015 9.35924 3.68847C9.34014 3.59692 9.31076 3.50804 9.27207 3.42187C9.2331 3.3358 9.17607 3.26921 9.10129 3.22195C9.02631 3.17474 8.9331 3.13727 8.82222 3.10944C8.52783 3.04282 8.15296 3.00679 7.69747 3.00119C6.66454 2.9901 6.00083 3.0568 5.70648 3.2012C5.58985 3.26221 5.48432 3.34557 5.38996 3.45102C5.28997 3.57325 5.27602 3.63995 5.34821 3.65093C5.68148 3.70085 5.91741 3.82027 6.05627 4.00908L6.10631 4.10913C6.14523 4.18132 6.18409 4.30912 6.22299 4.49236C6.26183 4.67559 6.2869 4.87829 6.29792 5.10033C6.32564 5.50583 6.32564 5.85292 6.29792 6.14167C6.27011 6.43054 6.24385 6.65541 6.2188 6.81646C6.19373 6.97753 6.15626 7.10805 6.10631 7.20798C6.05627 7.30795 6.02298 7.36904 6.00629 7.39122C5.98963 7.41339 5.97574 7.42737 5.96471 7.43285C5.89252 7.46052 5.81745 7.47461 5.73975 7.47461C5.66193 7.47461 5.56757 7.43568 5.45651 7.3579C5.3455 7.28011 5.23028 7.17326 5.11084 7.03717C4.99142 6.90106 4.85674 6.71085 4.70673 6.46651C4.55685 6.22218 4.40133 5.9334 4.24026 5.60019L4.107 5.35853C4.0237 5.20307 3.9099 4.97671 3.76551 4.67965C3.62102 4.38247 3.4933 4.09501 3.38228 3.81732C3.3379 3.7007 3.27123 3.61191 3.18239 3.55081L3.1407 3.52575C3.11297 3.50358 3.06847 3.48002 3.00744 3.45493C2.94631 3.42987 2.88252 3.41189 2.81582 3.40084L0.533252 3.41741C0.300011 3.41741 0.141746 3.47025 0.058414 3.57579L0.0250636 3.62571C0.0084038 3.65352 0 3.69793 0 3.75905C0 3.82015 0.0166608 3.89514 0.0500111 3.98393C0.383224 4.76707 0.745585 5.52234 1.13709 6.24986C1.52861 6.97739 1.86882 7.56343 2.15753 8.00746C2.44631 8.45181 2.74066 8.87119 3.04058 9.26537C3.3405 9.65972 3.53903 9.91243 3.63616 10.0234C3.73341 10.1347 3.8098 10.2178 3.86532 10.2734L4.07363 10.4733C4.20692 10.6066 4.40263 10.7662 4.66089 10.9522C4.9192 11.1384 5.20517 11.3216 5.51896 11.5022C5.83279 11.6826 6.19791 11.8298 6.61447 11.9436C7.03099 12.0575 7.43639 12.1033 7.83072 12.0812H8.78881C8.98302 12.0644 9.13019 12.0033 9.23031 11.8979L9.26343 11.8562C9.28571 11.823 9.30663 11.7715 9.32583 11.7021C9.34532 11.6328 9.35502 11.5563 9.35502 11.4731C9.34935 11.2343 9.3675 11.0191 9.40907 10.8276C9.45063 10.636 9.49787 10.4916 9.55086 10.3944C9.60375 10.2972 9.66347 10.2152 9.7299 10.1488C9.79642 10.0822 9.84395 10.0418 9.87179 10.0279C9.89943 10.0139 9.92151 10.0045 9.93812 9.99876C10.0715 9.95436 10.2283 9.99737 10.4089 10.128C10.5895 10.2585 10.7588 10.4197 10.9172 10.6112C11.0755 10.8029 11.2657 11.018 11.4878 11.2567C11.7101 11.4956 11.9044 11.6731 12.0709 11.7899L12.2374 11.8899C12.3487 11.9565 12.4931 12.0177 12.6709 12.0732C12.8483 12.1287 13.0038 12.1426 13.1372 12.1149L15.2698 12.0816C15.4807 12.0816 15.6447 12.0466 15.7612 11.9774C15.8779 11.9079 15.9471 11.8314 15.9695 11.7483C15.9918 11.665 15.993 11.5706 15.9737 11.4649C15.954 11.3595 15.9346 11.2858 15.9152 11.2442Z" fill="black"/>
</svg>
