<svg width="16" height="16" viewBox="0 0 16 16" fill="none" xmlns="http://www.w3.org/2000/svg">
<path d="M15.2162 2.95651C14.6447 2.27713 13.5894 2 11.5743 2H4.25897C2.19762 2 1.12453 2.295 0.555138 3.0183C0 3.72353 0 4.76262 0 6.20075V8.94181C0 11.7279 0.658667 13.1425 4.25897 13.1425H11.5743C13.3218 13.1425 14.2903 12.898 14.9168 12.2984C15.5593 11.6836 15.8333 10.6797 15.8333 8.94181V6.20075C15.8333 4.68412 15.7904 3.6389 15.2162 2.95651ZM10.1651 7.94971L6.84322 9.68575C6.76896 9.72456 6.68774 9.74382 6.60663 9.74382C6.5148 9.74382 6.42318 9.7191 6.34202 9.66996C6.1892 9.57737 6.09588 9.41174 6.09588 9.23308V5.77214C6.09588 5.59379 6.18894 5.42831 6.34146 5.33566C6.49402 5.24302 6.68376 5.23669 6.84204 5.31891L10.1639 7.04376C10.3329 7.13151 10.439 7.30598 10.4393 7.49633C10.4395 7.68684 10.3338 7.86155 10.1651 7.94971Z" fill="black"/>
</svg>
