<svg width="16" height="16" viewBox="0 0 16 16" fill="none" xmlns="http://www.w3.org/2000/svg">
<path d="M11.8044 1.00312L9.85922 1C7.67389 1 6.26163 2.44893 6.26163 4.69152V6.39356H4.30586C4.13686 6.39356 4 6.53057 4 6.69957V9.16563C4 9.33467 4.13701 9.4715 4.30586 9.4715H6.26163V15.6942C6.26163 15.8632 6.39849 16 6.56749 16H9.11922C9.28822 16 9.42508 15.863 9.42508 15.6942V9.4715H11.7118C11.8808 9.4715 12.0177 9.33467 12.0177 9.16563L12.0186 6.69957C12.0186 6.61842 11.9863 6.54072 11.9291 6.48328C11.8718 6.42586 11.7938 6.39356 11.7126 6.39356H9.42508V4.95072C9.42508 4.25723 9.59034 3.90518 10.4937 3.90518L11.8041 3.90472C11.9729 3.90472 12.1098 3.7677 12.1098 3.59886V1.30898C12.1098 1.14029 11.9731 1.00343 11.8044 1.00312Z" fill="black"/>
</svg>
