<svg width="16" height="16" viewBox="0 0 16 16" fill="none" xmlns="http://www.w3.org/2000/svg">
<path d="M16 3.44674C15.4099 3.70056 14.8196 3.85908 14.2298 3.92275C14.896 3.52301 15.3466 2.95829 15.5815 2.22862C14.972 2.59022 14.3217 2.83761 13.6302 2.97092C13.021 2.32373 12.2724 2 11.3839 2C10.5337 2 9.80888 2.29976 9.20896 2.89941C8.60946 3.49904 8.30966 4.22391 8.30966 5.07413C8.30966 5.30251 8.335 5.53737 8.3858 5.77846C7.12942 5.71502 5.95083 5.39936 4.84987 4.83147C3.74896 4.26351 2.81463 3.50685 2.0469 2.56145C1.7677 3.03723 1.62806 3.55445 1.62806 4.1128C1.62806 4.63945 1.75177 5.1281 1.99936 5.57861C2.24678 6.02905 2.57998 6.39385 2.99878 6.67308C2.50378 6.65401 2.04059 6.5239 1.60919 6.28278V6.32085C1.60919 7.06329 1.84237 7.71512 2.30869 8.27684C2.77507 8.8385 3.36363 9.19203 4.07423 9.33804C3.8077 9.40775 3.53798 9.44265 3.26518 9.44265C3.08749 9.44265 2.89394 9.42681 2.68459 9.39531C2.88128 10.0107 3.24298 10.5165 3.76956 10.9133C4.29624 11.3098 4.8927 11.5142 5.55897 11.5272C4.44226 12.4027 3.17007 12.8405 1.7424 12.8405C1.46951 12.8405 1.22212 12.8281 1 12.8026C2.4277 13.7225 4.00128 14.1825 5.72085 14.1825C6.81222 14.1825 7.83698 14.0097 8.79479 13.6638C9.75313 13.3182 10.5716 12.8549 11.2506 12.2742C11.9294 11.6937 12.5148 11.0258 13.0066 10.2708C13.4982 9.51566 13.8646 8.72735 14.1059 7.90567C14.3469 7.08382 14.4675 6.26071 14.4675 5.4357C14.4675 5.25801 14.4643 5.12483 14.4579 5.03595C15.0609 4.59835 15.5748 4.06843 16 3.44674Z" fill="black"/>
</svg>
