<svg width="16" height="16" viewBox="0 0 16 16" fill="none" xmlns="http://www.w3.org/2000/svg">
<path d="M8.24421 6.16296C7.09734 6.16296 6.1614 7.0989 6.1614 8.24578C6.1614 9.39265 7.09734 10.3286 8.24421 10.3286C9.39109 10.3286 10.327 9.39265 10.327 8.24578C10.327 7.0989 9.39109 6.16296 8.24421 6.16296ZM14.4911 8.24578C14.4911 7.38328 14.4989 6.52859 14.4504 5.66765C14.402 4.66765 14.1739 3.78015 13.4426 3.0489C12.7098 2.31609 11.8239 2.08953 10.8239 2.04109C9.9614 1.99265 9.10671 2.00046 8.24578 2.00046C7.38328 2.00046 6.52859 1.99265 5.66765 2.04109C4.66765 2.08953 3.78015 2.31765 3.0489 3.0489C2.31609 3.78171 2.08953 4.66765 2.04109 5.66765C1.99265 6.53015 2.00046 7.38484 2.00046 8.24578C2.00046 9.10671 1.99265 9.96296 2.04109 10.8239C2.08953 11.8239 2.31765 12.7114 3.0489 13.4427C3.78171 14.1755 4.66765 14.402 5.66765 14.4505C6.53015 14.4989 7.38484 14.4911 8.24578 14.4911C9.10828 14.4911 9.96296 14.4989 10.8239 14.4505C11.8239 14.402 12.7114 14.1739 13.4426 13.4427C14.1754 12.7098 14.402 11.8239 14.4504 10.8239C14.5004 9.96296 14.4911 9.10828 14.4911 8.24578ZM8.24421 11.4505C6.47078 11.4505 5.03953 10.0192 5.03953 8.24578C5.03953 6.47234 6.47078 5.04109 8.24421 5.04109C10.0177 5.04109 11.4489 6.47234 11.4489 8.24578C11.4489 10.0192 10.0177 11.4505 8.24421 11.4505ZM11.5801 5.65828C11.1661 5.65828 10.8317 5.3239 10.8317 4.90984C10.8317 4.49578 11.1661 4.1614 11.5801 4.1614C11.9942 4.1614 12.3286 4.49578 12.3286 4.90984C12.3287 5.00816 12.3094 5.10554 12.2718 5.1964C12.2343 5.28726 12.1791 5.36982 12.1096 5.43934C12.0401 5.50886 11.9575 5.56399 11.8667 5.60156C11.7758 5.63913 11.6784 5.6584 11.5801 5.65828Z" fill="black"/>
</svg>
