<svg width="135" height="58" viewBox="0 0 135 58" fill="none" xmlns="http://www.w3.org/2000/svg">
<g filter="url(#filter0_d)">
<path d="M30.1758 9.69799L6 49M30.1758 9.69799L56 49M30.1758 9.69799L20.8352 1.96644M37.3187 1L30.1758 9.37584L28.5275 2.28859M20.2857 49L30.1758 30.6376L41.7143 49" stroke="#DEAA43" stroke-width="3"/>
<path d="M63.98 49.27C62.62 49.27 61.43 48.98 60.41 48.4C59.39 47.8 58.6 46.97 58.04 45.91C57.48 44.83 57.2 43.57 57.2 42.13C57.2 40.77 57.49 39.55 58.07 38.47C58.65 37.39 59.45 36.54 60.47 35.92C61.49 35.3 62.66 34.99 63.98 34.99C65.4 34.99 66.61 35.29 67.61 35.89C68.63 36.49 69.41 37.33 69.95 38.41C70.49 39.47 70.76 40.71 70.76 42.13C70.76 43.51 70.47 44.74 69.89 45.82C69.33 46.88 68.54 47.72 67.52 48.34C66.52 48.96 65.34 49.27 63.98 49.27ZM64.22 47.83C65.42 47.83 66.31 47.34 66.89 46.36C67.47 45.36 67.76 44.07 67.76 42.49C67.76 41.25 67.57 40.18 67.19 39.28C66.83 38.36 66.34 37.66 65.72 37.18C65.1 36.68 64.42 36.43 63.68 36.43C62.52 36.43 61.65 36.9 61.07 37.84C60.51 38.78 60.23 40 60.23 41.5C60.23 42.86 60.39 44.01 60.71 44.95C61.05 45.89 61.52 46.61 62.12 47.11C62.72 47.59 63.42 47.83 64.22 47.83ZM73.0468 49.09C73.0468 48.83 73.0568 48.6 73.0768 48.4C73.0968 48.18 73.1368 47.98 73.1968 47.8C73.7968 47.8 74.2368 47.63 74.5168 47.29C74.8168 46.93 74.9668 46.23 74.9668 45.19V39.07C74.9668 38.03 74.8168 37.34 74.5168 37C74.2368 36.64 73.7968 36.46 73.1968 36.46C73.1368 36.28 73.0968 36.09 73.0768 35.89C73.0568 35.67 73.0468 35.43 73.0468 35.17C73.4868 35.19 73.9868 35.21 74.5468 35.23C75.1068 35.23 75.6668 35.24 76.2268 35.26C76.7868 35.26 77.2668 35.26 77.6668 35.26V45.52C77.6668 46.4 77.8368 46.99 78.1768 47.29C78.5168 47.59 79.0868 47.76 79.8868 47.8C79.9468 47.96 79.9868 48.15 80.0068 48.37C80.0268 48.59 80.0368 48.83 80.0368 49.09C79.6568 49.07 79.2568 49.05 78.8368 49.03C78.4168 49.03 77.9968 49.02 77.5768 49C77.1568 49 76.7368 49 76.3168 49C75.6968 49 75.1068 49.01 74.5468 49.03C73.9868 49.05 73.4868 49.07 73.0468 49.09ZM83.1268 39.7C83.0668 39.06 82.9368 38.5 82.7368 38.02C82.5568 37.54 82.2168 37.18 81.7168 36.94C81.2168 36.68 80.4668 36.55 79.4668 36.55H77.0068L77.5768 35.26C78.7568 35.26 79.7768 35.26 80.6368 35.26C81.5168 35.24 82.2368 35.23 82.7968 35.23C83.3768 35.21 83.8168 35.2 84.1168 35.2C84.1368 35.52 84.1668 35.9 84.2068 36.34C84.2668 36.76 84.3268 37.23 84.3868 37.75C84.4668 38.25 84.5468 38.78 84.6268 39.34C84.4668 39.44 84.2568 39.53 83.9968 39.61C83.7368 39.67 83.4468 39.7 83.1268 39.7ZM92.7495 49.27C91.3895 49.27 90.1995 48.98 89.1795 48.4C88.1595 47.8 87.3695 46.97 86.8095 45.91C86.2495 44.83 85.9695 43.57 85.9695 42.13C85.9695 40.77 86.2595 39.55 86.8395 38.47C87.4195 37.39 88.2195 36.54 89.2395 35.92C90.2595 35.3 91.4295 34.99 92.7495 34.99C94.1695 34.99 95.3795 35.29 96.3795 35.89C97.3995 36.49 98.1795 37.33 98.7195 38.41C99.2595 39.47 99.5295 40.71 99.5295 42.13C99.5295 43.51 99.2395 44.74 98.6595 45.82C98.0995 46.88 97.3095 47.72 96.2895 48.34C95.2895 48.96 94.1095 49.27 92.7495 49.27ZM92.9895 47.83C94.1895 47.83 95.0795 47.34 95.6595 46.36C96.2395 45.36 96.5295 44.07 96.5295 42.49C96.5295 41.25 96.3395 40.18 95.9595 39.28C95.5995 38.36 95.1095 37.66 94.4895 37.18C93.8695 36.68 93.1895 36.43 92.4495 36.43C91.2895 36.43 90.4195 36.9 89.8395 37.84C89.2795 38.78 88.9995 40 88.9995 41.5C88.9995 42.86 89.1595 44.01 89.4795 44.95C89.8195 45.89 90.2895 46.61 90.8895 47.11C91.4895 47.59 92.1895 47.83 92.9895 47.83ZM101.816 49.09C101.816 48.83 101.826 48.6 101.846 48.4C101.866 48.18 101.906 47.98 101.966 47.8C102.566 47.8 103.006 47.63 103.286 47.29C103.586 46.93 103.736 46.23 103.736 45.19V39.07C103.736 38.03 103.586 37.34 103.286 37C103.006 36.64 102.566 36.46 101.966 36.46C101.906 36.28 101.866 36.09 101.846 35.89C101.826 35.67 101.816 35.43 101.816 35.17C102.256 35.19 102.746 35.21 103.286 35.23C103.826 35.25 104.296 35.26 104.696 35.26C105.096 35.26 105.516 35.26 105.956 35.26C106.416 35.24 106.856 35.23 107.276 35.23C107.716 35.21 108.096 35.2 108.416 35.2C109.496 35.2 110.426 35.3 111.206 35.5C112.006 35.68 112.616 36 113.036 36.46C113.476 36.9 113.696 37.49 113.696 38.23C113.696 39.09 113.336 39.83 112.616 40.45C111.896 41.07 111.026 41.45 110.006 41.59C110.786 41.65 111.536 41.8 112.256 42.04C112.976 42.26 113.566 42.62 114.026 43.12C114.506 43.6 114.746 44.26 114.746 45.1C114.746 45.82 114.576 46.48 114.236 47.08C113.896 47.66 113.316 48.13 112.496 48.49C111.696 48.83 110.586 49 109.166 49C108.106 49 107.106 49 106.166 49C105.226 49.02 104.386 49.03 103.646 49.03C102.906 49.05 102.296 49.07 101.816 49.09ZM108.686 47.8C109.646 47.8 110.386 47.6 110.906 47.2C111.426 46.8 111.686 46.2 111.686 45.4C111.686 44.6 111.496 43.99 111.116 43.57C110.736 43.15 110.246 42.87 109.646 42.73C109.066 42.57 108.466 42.49 107.846 42.49H106.076V41.23H108.056C109.136 41.23 109.856 41.01 110.216 40.57C110.596 40.11 110.786 39.56 110.786 38.92C110.786 38.28 110.626 37.78 110.306 37.42C110.006 37.06 109.616 36.81 109.136 36.67C108.656 36.53 108.156 36.46 107.636 36.46C107.336 36.46 107.076 36.48 106.856 36.52C106.636 36.54 106.376 36.59 106.076 36.67L106.436 35.95V45.79C106.436 46.35 106.496 46.78 106.616 47.08C106.756 47.36 106.986 47.55 107.306 47.65C107.646 47.75 108.106 47.8 108.686 47.8ZM123.921 49.27C122.561 49.27 121.371 48.98 120.351 48.4C119.331 47.8 118.541 46.97 117.981 45.91C117.421 44.83 117.141 43.57 117.141 42.13C117.141 40.77 117.431 39.55 118.011 38.47C118.591 37.39 119.391 36.54 120.411 35.92C121.431 35.3 122.601 34.99 123.921 34.99C125.341 34.99 126.551 35.29 127.551 35.89C128.571 36.49 129.351 37.33 129.891 38.41C130.431 39.47 130.701 40.71 130.701 42.13C130.701 43.51 130.411 44.74 129.831 45.82C129.271 46.88 128.481 47.72 127.461 48.34C126.461 48.96 125.281 49.27 123.921 49.27ZM124.161 47.83C125.361 47.83 126.251 47.34 126.831 46.36C127.411 45.36 127.701 44.07 127.701 42.49C127.701 41.25 127.511 40.18 127.131 39.28C126.771 38.36 126.281 37.66 125.661 37.18C125.041 36.68 124.361 36.43 123.621 36.43C122.461 36.43 121.591 36.9 121.011 37.84C120.451 38.78 120.171 40 120.171 41.5C120.171 42.86 120.331 44.01 120.651 44.95C120.991 45.89 121.461 46.61 122.061 47.11C122.661 47.59 123.361 47.83 124.161 47.83Z" fill="#E19F49"/>
</g>
<defs>
<filter id="filter0_d" x="0.722656" y="0.0266113" width="133.979" height="57.797" filterUnits="userSpaceOnUse" color-interpolation-filters="sRGB">
<feFlood flood-opacity="0" result="BackgroundImageFix"/>
<feColorMatrix in="SourceAlpha" type="matrix" values="0 0 0 0 0 0 0 0 0 0 0 0 0 0 0 0 0 0 127 0" result="hardAlpha"/>
<feOffset dy="4"/>
<feGaussianBlur stdDeviation="2"/>
<feColorMatrix type="matrix" values="0 0 0 0 0.913725 0 0 0 0 0.764706 0 0 0 0 0.545098 0 0 0 0.4 0"/>
<feBlend mode="normal" in2="BackgroundImageFix" result="effect1_dropShadow"/>
<feBlend mode="normal" in="SourceGraphic" in2="effect1_dropShadow" result="shape"/>
</filter>
</defs>
</svg>
